Coordinates
version=1
nRows=65
nColumns=12
inDegrees=yes

Units are S.I. units (second, meters, Newtons, ...)
Angles are in degrees

endheader
time	SC_y	SC_z	SC_x	AC_y	AC_z	AC_x	GH_y	GH_z	GH_yy	EL_x	PS_y
       0.0              -59.13          33.14          69.26          43.75         -11.32          15.55         -114.0          73.66          34.41          132.4          70.35
  0.003631              -59.12          33.13          69.25          43.75         -11.32          15.55         -114.0          73.65          34.42          132.3          70.34
  0.007263              -59.12          33.13          69.25          43.75         -11.32          15.55         -114.0          73.64          34.44          132.3          70.33
   0.01089              -59.11          33.13          69.25          43.76         -11.31          15.55         -114.0          73.63          34.46          132.3          70.32
   0.01453              -59.11          33.13          69.24          43.76         -11.31          15.55         -113.9          73.62          34.47          132.3          70.31
   0.01816               -59.1          33.12          69.23          43.76         -11.31          15.55         -113.9          73.61          34.49          132.3           70.3
   0.02179              -59.09          33.12          69.23          43.76          -11.3          15.55         -113.9           73.6          34.51          132.2          70.29
   0.02542              -59.08          33.12          69.22          43.76          -11.3          15.55         -113.8          73.58          34.53          132.2          70.27
   0.02905              -59.08          33.11          69.22          43.77          -11.3          15.55         -113.8          73.57          34.56          132.2          70.26
   0.03268              -59.07          33.11          69.21          43.77         -11.29          15.55         -113.8          73.55          34.58          132.2          70.25
   0.03631              -59.06           33.1           69.2          43.77         -11.29          15.55         -113.7          73.53          34.61          132.1          70.23
   0.03995              -59.05           33.1          69.19          43.78         -11.29          15.56         -113.7          73.51          34.63          132.1          70.21
   0.04358              -59.04          33.09          69.18          43.78         -11.28          15.56         -113.7          73.49          34.66          132.1           70.2
   0.04721              -59.03          33.09          69.17          43.78         -11.28          15.56         -113.6          73.47           34.7          132.0          70.18
   0.05084              -59.02          33.08          69.16          43.79         -11.27          15.56         -113.6          73.45          34.73          132.0          70.16
   0.05447               -59.0          33.08          69.15          43.79         -11.26          15.56         -113.5          73.42          34.77          132.0          70.13
    0.0581              -58.99          33.07          69.14          43.79         -11.26          15.56         -113.5           73.4          34.81          131.9          70.11
   0.06173              -58.97          33.06          69.13           43.8         -11.25          15.56         -113.4          73.37          34.86          131.9          70.08
   0.06537              -58.96          33.05          69.11          43.81         -11.24          15.57         -113.3          73.33          34.91          131.8          70.05
     0.069              -58.94          33.04          69.09          43.81         -11.24          15.57         -113.3           73.3          34.96          131.8          70.02
   0.07263              -58.92          33.03          69.08          43.82         -11.23          15.57         -113.2          73.26          35.02          131.7          69.99
   0.07626               -58.9          33.02          69.06          43.82         -11.22          15.57         -113.1          73.21          35.09          131.6          69.95
   0.07989              -58.87          33.01          69.04          43.83         -11.21          15.58         -113.0          73.16          35.16          131.6          69.91
   0.08352              -58.84           33.0          69.01          43.84         -11.19          15.58         -112.9          73.11          35.24          131.5          69.86
   0.08715              -58.81          32.98          68.99          43.85         -11.18          15.58         -112.7          73.05          35.33          131.4          69.81
   0.09079              -58.78          32.96          68.96          43.86         -11.16          15.59         -112.6          72.99          35.43          131.3          69.75
   0.09442              -58.74          32.94          68.92          43.87         -11.15          15.59         -112.4          72.91          35.54          131.2          69.68
   0.09805               -58.7          32.92          68.89          43.89         -11.13           15.6         -112.3          72.83          35.66          131.0          69.61
    0.1017              -58.65           32.9          68.84           43.9         -11.11           15.6         -112.1          72.73           35.8          130.9          69.53
    0.1053              -58.59          32.87           68.8          43.92         -11.08          15.61         -111.8          72.63          35.97          130.7          69.43
    0.1089              -58.53          32.84          68.74          43.94         -11.05          15.61         -111.6           72.5          36.15          130.5          69.32
    0.1126              -58.46           32.8          68.68          43.96         -11.02          15.62         -111.3          72.36          36.36          130.3           69.2
    0.1162              -58.38          32.76          68.61          43.99         -10.98          15.63         -111.0           72.2           36.6          130.0          69.06
    0.1198              -58.28          32.71          68.52          44.02         -10.94          15.64         -110.6          72.01          36.88          129.7          68.89
    0.1235              -58.16          32.66          68.42          44.06         -10.89          15.66         -110.1          71.79          37.22          129.4           68.7
    0.1271              -58.03          32.59          68.31           44.1         -10.83          15.67         -109.6          71.53           37.6          129.0          68.47
    0.1307              -57.87          32.51          68.17          44.15         -10.76          15.69         -108.9          71.22          38.07          128.5           68.2
    0.1344              -57.68          32.42           68.0          44.21         -10.68          15.71         -108.1          70.85          38.62          127.9          67.87
     0.138              -57.45           32.3           67.8          44.29         -10.57          15.74         -107.2          70.41          39.29          127.2          67.47
    0.1416              -57.17          32.16          67.56          44.38         -10.45          15.77         -106.1          69.86          40.11          126.3          66.99
    0.1453              -56.82          31.99          67.26          44.49         -10.29          15.81         -104.7          69.18          41.13          125.2           66.4
    0.1489              -56.39          31.77          66.88          44.63          -10.1          15.85         -102.9          68.34          42.39          123.9          65.65
    0.1525              -55.85           31.5          66.41           44.8         -9.858          15.92         -100.7          67.28          43.98          122.2          64.72
    0.1562              -55.15          31.16           65.8          45.03         -9.549          15.99         -97.86          65.93           46.0          120.0          63.53
    0.1598              -54.27          30.71          65.03          45.31         -9.154          16.09         -94.25          64.21          48.58          117.3          62.01
    0.1634              -53.13          30.15          64.04          45.68         -8.646          16.22         -89.62          61.99           51.9          113.7          60.06
     0.167              -51.67          29.42          62.78          46.14         -7.998          16.38         -83.71          59.16          56.14          109.2          57.56
    0.1707              -49.85          28.51          61.19          46.73         -7.183          16.59         -76.28          55.61          61.47          103.5          54.43
    0.1743              -47.62           27.4          59.25          47.44          -6.19          16.84         -67.22          51.27          67.97          96.63          50.61
    0.1779              -45.04          26.11          57.01          48.27         -5.039          17.13         -56.71          46.25           75.5          88.61          46.18
    0.1816              -42.24          24.72          54.58          49.17         -3.793          17.44         -45.34          40.81          83.66          79.93          41.38
    0.1852              -39.44          23.32          52.15          50.07         -2.546          17.75         -33.97          35.37          91.81          71.25          36.59
    0.1888              -36.86          22.03           49.9           50.9         -1.395          18.04         -23.47          30.35          99.34          63.24          32.16
    0.1925              -34.63          20.92          47.96          51.61        -0.4024          18.29         -14.41          26.01          105.8          56.32          28.34
    0.1961              -32.81          20.01          46.37           52.2         0.4125           18.5         -6.973          22.46          111.2          50.64           25.2
    0.1997              -31.35          19.29          45.11          52.66          1.061          18.66          -1.06          19.63          115.4          46.13          22.71
    0.2034              -30.21          18.72          44.12          53.03          1.568          18.79          3.569          17.41          118.7           42.6          20.76
     0.207              -29.33          18.28          43.35          53.31          1.963          18.89          7.176          15.69          121.3          39.84          19.23
    0.2106              -28.63          17.93          42.75          53.54          2.272          18.96          9.994          14.34          123.3          37.69          18.05
    0.2143              -28.09          17.66          42.27          53.71          2.515          19.03          12.21          13.28          124.9           36.0          17.11
    0.2179              -27.66          17.44           41.9          53.85          2.708          19.07          13.97          12.44          126.2          34.66          16.37
    0.2215              -27.31          17.27          41.59          53.96          2.863          19.11          15.38          11.76          127.2          33.58          15.77
    0.2251              -27.03          17.13          41.35          54.05          2.988          19.14          16.53          11.21          128.0          32.71          15.29
    0.2288               -26.8          17.01          41.15          54.13          3.091          19.17          17.46          10.77          128.7          31.99           14.9
    0.2324              -26.61          16.92          40.98          54.19          3.175          19.19          18.24           10.4          129.2           31.4          14.57
